/* XPM */
static char * upload2_xpm[] = {
"16 16 2 1",
" 	c None",
".	c #FFFFFF",
"                ",
"      ....      ",
"     .    .     ",
"    .      ..   ",
"   .    .    .  ",
"  .    ...   .  ",
"  .   . . .  .  ",
"  .     .   ..  ",
"   .... . ...   ",
"        .       ",
"        .       ",
"                ",
"                ",
"                ",
"                ",
"                "};
